<svg id="Layer_1" data-name="Layer 1" xmlns="http://www.w3.org/2000/svg" viewBox="0 0 410.63 131.19"><defs><style>.cls-1,.cls-2,.cls-3{fill:#69707e;}.cls-2{stroke:#fff;}.cls-2,.cls-4{stroke-miterlimit:10;}.cls-3{isolation:isolate;font-size:30.13px;font-family:GillSans, Gill Sans;}.cls-4{fill:none;stroke:#69707e;}</style></defs><g id="Layer_2" data-name="Layer 2"><path class="cls-1" d="M232.47,180.18l46.82,40.26,47.1-40.26v94h-17V216.8L279.28,244,232.46,203V180.18Z" transform="translate(-27.26 -180.18)"/><path class="cls-1" d="M393.79,180.18H370.86L329,225.87l42.72,48.27h22.09l-40.05-48.27Q373.75,203,393.79,180.18Z" transform="translate(-27.26 -180.18)"/><path class="cls-2" d="M270,217.21" transform="translate(-27.26 -180.18)"/><text class="cls-3" transform="translate(205.21 124.24)">Beauty Moments</text><path class="cls-1" d="M33.49,211c.32.85,10.63-2.69,34.79-9.32,0,0,17.32-4.75,38.88-8.64a66.86,66.86,0,0,1,20.9-1.05c2.15.25,5.76.79,14.79,3.55a189.83,189.83,0,0,1,27.06,10C188,214,196.11,222.16,197.19,221c1.27-1.41-8-14.84-22.05-24.78-22.74-16.08-48.5-16.28-57.52-15.91-16.86.69-32.23,7.21-63,20.23C45.17,204.51,33.13,210,33.49,211Z" transform="translate(-27.26 -180.18)"/><path class="cls-4" d="M104.13,219.08c32.15-6.72,61.37.21,73.89,19.1a40.51,40.51,0,0,1,6.14,16.06" transform="translate(-27.26 -180.18)"/><path class="cls-1" d="M43.27,233.46a171.27,171.27,0,0,0,31.6,16.82c45.86,18.53,88.78,12.5,111,7.5a20.4,20.4,0,0,0,2.5,6.82,20.75,20.75,0,0,0,7.28,7.28,15.36,15.36,0,0,1-8.87-1.93c-1.95-1.17-3.06-2.53-3.64-2.16-.84.53.32,4.18,1.84,6.81a17.71,17.71,0,0,0,4.07,4.78,37.9,37.9,0,0,1-4.83-2.67c-6.38-4.17-9-8.69-9.72-8.24s1.24,5.46,4.15,10a41.65,41.65,0,0,0,7.9,9.09,35.85,35.85,0,0,1-4.15-2.1,41.54,41.54,0,0,1-12.68-11.94c-2.61-3.81-3.79-6.9-4.55-6.65-.17.06-.57.36-.23,4.15a35.42,35.42,0,0,0,2,10.29,31.85,31.85,0,0,0,7.9,11.82,36.08,36.08,0,0,1-9-6.48,33.54,33.54,0,0,1-6.88-9.44c-1.94-4-2.32-7-2.9-6.93s.09,4.33-1.08,10.34a38.94,38.94,0,0,1-8.58,17.62,54.79,54.79,0,0,0,1.82-6.71,42.71,42.71,0,0,0,.91-10.8,15,15,0,0,0-1.64-6.69c-.65-1.21-1.21-2.26-1.72-2.18-1.45.22.19,9.38-2,18.36a37.54,37.54,0,0,1-8,15.29,59.58,59.58,0,0,0,2.79-21.77c-.32-5.4-1.48-10.54-2.33-10.52s-.38,6.07-3.49,14.21a47.29,47.29,0,0,1-5.53,10.19,49.24,49.24,0,0,1-10.76,11,46.92,46.92,0,0,0,7.5-13.69c3.49-10.14,3.05-20.56,1.71-20.8-1.1-.19-2,6.67-6.64,15.31a62.06,62.06,0,0,1-14.29,17.66,84,84,0,0,0,5.15-9.17A67,67,0,0,0,114.13,287a24.57,24.57,0,0,0,1.06-9.93c-.07-.58-.35-3.26-1-3.3s-1,3.68-3,8.22a33.16,33.16,0,0,1-3.75,6.48,44.91,44.91,0,0,1-10.65,10.42,59.61,59.61,0,0,1-7.81,4.93A52,52,0,0,0,102,287.62a50.08,50.08,0,0,0,3.87-11.56c.55-2.41,1.1-4.81.57-5-.93-.39-3.5,6.43-10.31,13.94a46.93,46.93,0,0,1-7.77,7,42.69,42.69,0,0,1-14.44,6.59A44.63,44.63,0,0,0,85,290.39c9-9.17,12.48-20.9,11.48-21.45-.75-.42-3.47,5.84-10,12.05-7.91,7.48-17.18,10.91-24.63,12.62A53.85,53.85,0,0,0,80,279.82c4.84-5.73,8.11-12.18,7.46-12.66s-5,6.07-12.66,11.91a57.22,57.22,0,0,1-20.65,9.84,53.09,53.09,0,0,0,16.67-12.85c4.2-4.89,7.47-10.6,7-11s-2.45,2.62-6.78,6-8.23,5.09-12.92,7.16a92.8,92.8,0,0,1-12.81,4.55C64.18,268.7,68.14,265,67.8,264.47s-6,3.19-14,6.29a77.15,77.15,0,0,1-26.52,5.08c2.22-.64,15.5-4.53,25.46-10.69,1.2-.74,3.42-2.32,7.88-5.49,6.23-4.43,6.89-5.12,6.9-6.06,0-2.91-6.33-3.9-13.15-8.53A39.64,39.64,0,0,1,43.27,233.46Z" transform="translate(-27.26 -180.18)"/></g></svg>