<?xml version="1.0" encoding="utf-8"?>
<!-- Generator: Adobe Illustrator 25.0.0, SVG Export Plug-In . SVG Version: 6.00 Build 0)  -->
<svg version="1.1" id="Layer_1" xmlns="http://www.w3.org/2000/svg" xmlns:xlink="http://www.w3.org/1999/xlink" x="0px" y="0px"
	 viewBox="0 0 464 350.5" style="enable-background:new 0 0 464 350.5;" xml:space="preserve">
<style type="text/css">
	.st0{fill:#EACDC9;}
</style>
<g id="Layer_2_1_">
	<path class="st0" d="M86.8-15.4C86.4-13,115.6-7.3,181.8,10c0,0,47.4,12.4,103.7,32.6c13.7,4.9,31.4,11.6,50.8,26
		c4.7,3.5,12.5,9.7,30.1,28.6c14.9,16,32.2,34.5,50.3,60.5c31.1,44.7,39.2,75.1,43.4,73.7c4.9-1.6,1.4-46-18.3-88.6
		c-31.8-69-92.4-104.6-114.2-116c-40.8-21.4-86-26.9-176.4-38.1C123.2-14.7,87.3-18.2,86.8-15.4z"/>
	<path class="st0" d="M79.3,51.1c14.3,29.3,31.6,57.1,51.7,82.9c83.1,106.4,192.7,150.7,252,169.1c-2.3,6.3-3.4,12.9-3.4,19.5
		c0.1,9.5,2.6,18.8,7.3,27.1c-6.2-3.1-13.6-8.2-18.3-16.7c-3-5.4-3.8-10.2-5.6-10.1c-2.7,0.1-5,10.3-5,18.6c0,5.7,1.1,11.4,3.1,16.8
		c-2.9-4.1-5.5-8.4-7.8-12.9c-9.4-18.6-9.4-32.8-11.7-32.7c-2.3,0.1-4.5,14.6-3.8,29.4c0.5,11,2.6,21.9,6.3,32.3
		c-2.6-3.4-4.9-6.9-7-10.6c-7.7-14-12.4-29.5-13.7-45.5c-1-12.6,0.5-21.5-1.7-21.9c-0.5-0.1-1.8,0.1-6.2,9.5
		c-4.2,9.1-7.6,16.3-9.3,27c-2.1,12.9-1.2,26.2,2.5,38.7c-5.5-8.5-9.7-17.8-12.4-27.6c-3-10.3-4.1-21-3.4-31.7
		c0.9-12.1,4.1-19.7,2.6-20.3c-1.7-0.7-5.7,10.4-16.7,23c-6.7,7.6-14.4,14.2-22.9,19.5c-6.7,4.3-13.9,7.8-21.4,10.4
		c4.8-4.2,9.3-8.6,13.5-13.4c6.6-7.3,12.3-15.5,16.9-24.3c2.7-5.3,5-10.9,5.3-18c0.1-3.7,0.2-7-1.1-7.5
		c-3.8-1.5-12.4,22.4-29.8,40.7c-13.3,13.9-28.5,21.2-39.7,25.3c14.9-13.5,27.2-29.6,36.3-47.6c6.6-13.2,10.9-26.9,8.8-28
		c-2.2-1.2-9.1,13.8-27.6,28.8c-8.3,6.6-17.3,12.1-27,16.5c-12.8,5.9-26.4,9.7-40.4,11.3c13.3-5.3,25.6-12.8,36.4-22.1
		c22.1-19.2,35.3-44.4,32.4-46.8c-2.3-1.9-13.9,13-36.6,27.1c-17.8,10.9-37.4,18.4-57.9,22.2c8.5-4.4,16.8-9.2,24.7-14.6
		c8.9-6,17.2-12.7,24.9-20.1c5.8-5.6,11.9-12.3,16.1-22c0.6-1.5,3.6-8.2,2.3-9.1c-1.6-1.1-7.4,7.3-18.2,15.4
		c-5.5,4.1-11.4,7.5-17.7,10.2c-15.7,7.2-29.3,8.9-39.4,10.1c-8.3,1-16.7,1.3-25.1,1c10.2-1.9,32.1-6.9,52.6-20.6
		c11.7-7.9,19.5-16.2,24.9-22c4.6-4.9,9.2-9.9,8.2-11.1c-1.7-2.2-17,10.4-43.4,18.8c-9.1,3.1-18.5,5.1-28,6.1
		c-14.5,1.3-29.1-0.1-43.1-4.1c12.6,0.5,25.3-0.9,37.4-4.3c33.7-9.4,57.9-32.4,56.4-35c-1.2-2-16.2,9.1-40.2,14.8
		c-28.9,6.9-55.5,2.3-75.4-3.8c20.9,1.8,41.9-0.8,61.7-7.8c19.2-6.9,35.8-17.6,34.9-19.7s-20.1,7.5-46.2,10.9
		c-20.9,2.6-42,0.9-62.2-4.9c19.3,1.3,38.6-1.3,56.9-7.6c16.6-5.8,32.1-14.9,31.5-16.5c-0.5-1.2-9.4,2.8-24.2,4.9
		c-14.8,2.1-26.4,0.8-40.3-0.7c-12.3-1.3-24.5-3.6-36.5-6.7c63.9-7.4,78.4-10.8,78.3-12.5c-0.1-1.9-18.5-0.7-41.7-4.3
		c-24.4-3.9-48-12.1-69.6-24.2c6.1,1.5,42.8,10.4,74.7,9.5c3.8-0.1,11.2-0.8,26.1-2.2c20.8-2,23.3-2.7,24.6-4.9
		c4-6.9-9.6-17.8-19.4-38.1C83.3,80.3,79.8,65.8,79.3,51.1z"/>
</g>
</svg>
